<?xml version="1.0" encoding="utf-8"?>
<!-- Generator: Adobe Illustrator 19.0.0, SVG Export Plug-In . SVG Version: 6.00 Build 0)  -->
<svg version="1.1" id="Calque_1" xmlns="http://www.w3.org/2000/svg" xmlns:xlink="http://www.w3.org/1999/xlink" x="0px" y="0px"
	 viewBox="0 0 595.3 236" style="enable-background:new 0 0 595.3 236;" xml:space="preserve">
<style type="text/css">
	.st0{fill:#35383A;}
	.st1{fill:#414042;}
	.st2{fill:#7B7B7B;}
</style>
<path id="XMLID_60_" class="st0" d="M191.5,111.3V12.2h27.4v99.2c0,3.8,1.3,7,4,9.7c2.6,2.6,5.9,4,9.7,4c3.8,0,6.9-1.3,9.5-4
	c2.6-2.6,3.9-5.9,3.9-9.7V12.2h27.4v99.2c0,3.8,1.3,7,4,9.7c2.7,2.6,5.9,4,9.6,4c3.8,0,7.1-1.3,9.7-4c2.7-2.6,4-5.9,4-9.7V12.2h27.4
	v99.2c0,11.4-4,21.1-12.1,29.2c-8.1,8.1-17.7,12.1-29.1,12.1c-10.4,0-19.5-3.5-27.3-10.6c-7.6,7.1-16.7,10.6-27.2,10.6
	c-11.3,0-21-4-29-12.1C195.5,132.4,191.5,122.7,191.5,111.3z"/>
<path id="XMLID_58_" class="st0" d="M354.7,149V12.2h27.4V149H354.7z"/>
<path id="XMLID_56_" class="st0" d="M408.4,149V12.2h27.4v109.5h54.5V149H408.4z"/>
<path id="XMLID_53_" class="st0" d="M509.7,149V12.2h34.2c8.7,0,16.6,2.1,24,6.4c7.3,4.3,13.1,10.1,17.4,17.5
	c4.3,7.3,6.4,15.4,6.4,24v41c0,8.6-2.1,16.6-6.4,23.9c-4.3,7.3-10.1,13.2-17.4,17.5c-7.3,4.3-15.3,6.5-24,6.5H509.7z M537.1,121.6
	h6.8c5.7,0,10.5-2,14.4-6.1c3.9-4,5.9-8.9,5.9-14.5v-41c0-5.7-2-10.5-5.9-14.5c-3.9-4-8.8-6-14.4-6h-6.8V121.6z"/>
<g id="XMLID_42_">
	<path id="XMLID_51_" class="st1" d="M205.7,223.6c-4.2,0-7.6-1.5-10.3-4.2c-3.9-3.9-3.8-8.7-3.8-15.3c0-6.6-0.1-11.4,3.8-15.3
		c2.7-2.7,6.1-4.2,10.3-4.2c7.2,0,12.7,4.1,14.1,12.1h-7.6c-0.8-3.1-2.7-5.4-6.5-5.4c-2,0-3.7,0.8-4.8,2c-1.5,1.6-1.9,3.4-1.9,10.8
		c0,7.4,0.4,9.2,1.9,10.8c1.1,1.2,2.7,2,4.8,2c3.8,0,5.7-2.4,6.5-5.4h7.6C218.5,219.6,212.8,223.6,205.7,223.6z"/>
	<path id="XMLID_48_" class="st1" d="M254.8,219.5c-2.7,2.7-6,4.2-10.3,4.2c-4.4,0-7.7-1.5-10.4-4.2c-3.9-3.9-3.8-8.7-3.8-15.3
		c0-6.6-0.1-11.4,3.8-15.3c2.7-2.7,6-4.2,10.4-4.2c4.4,0,7.6,1.5,10.3,4.2c3.9,3.9,3.8,8.7,3.8,15.3
		C258.6,210.8,258.7,215.6,254.8,219.5z M249.3,193.4c-1.1-1.2-2.7-2-4.8-2c-2,0-3.8,0.8-4.8,2c-1.5,1.6-1.8,3.4-1.8,10.8
		c0,7.4,0.4,9.1,1.8,10.8c1.1,1.2,2.8,2,4.8,2c2,0,3.7-0.8,4.8-2c1.5-1.6,1.9-3.4,1.9-10.8C251.2,196.8,250.7,195,249.3,193.4z"/>
	<path id="XMLID_45_" class="st1" d="M295.6,219.7c-2.5,2.5-6.1,3.7-10.1,3.7h-13.8V185h13.8c4,0,7.6,1.1,10.1,3.7
		c4.3,4.3,3.9,9.6,3.9,15.3C299.5,209.8,299.9,215.4,295.6,219.7z M290.4,194.1c-1.3-1.6-3-2.4-5.6-2.4h-5.6v25h5.6
		c2.6,0,4.3-0.8,5.6-2.4c1.4-1.7,1.6-4.5,1.6-10.3C292,198.2,291.8,195.8,290.4,194.1z"/>
	<path id="XMLID_43_" class="st1" d="M312.5,223.3V185h25.2v6.7H320v9h15.1v6.7H320v9.3h17.7v6.7H312.5z"/>
</g>
<path id="XMLID_40_" class="st0" d="M378.8,223.6c-5.8,0-10.2-1.2-14-5.1l4.8-4.8c2.4,2.4,5.7,3.2,9.2,3.2c4.4,0,6.8-1.7,6.8-4.7
	c0-1.3-0.4-2.5-1.2-3.2c-0.8-0.7-1.6-1.1-3.4-1.3l-4.6-0.6c-3.3-0.5-5.7-1.5-7.4-3.2c-1.8-1.8-2.7-4.3-2.7-7.5
	c0-6.8,5.1-11.6,13.3-11.6c5.3,0,9.1,1.3,12.4,4.5l-4.7,4.7c-2.4-2.3-5.3-2.6-7.9-2.6c-4,0-5.9,2.2-5.9,4.8c0,1,0.3,2,1.1,2.7
	c0.8,0.7,2,1.3,3.5,1.5l4.5,0.6c3.5,0.5,5.7,1.5,7.3,3c2,1.9,3,4.7,3,8.1C393,219.5,386.8,223.6,378.8,223.6z"/>
<path id="XMLID_38_" class="st0" d="M418.2,223.6c-4.2,0-7.6-1.5-10.3-4.2c-3.9-3.9-3.8-8.7-3.8-15.3c0-6.6-0.1-11.4,3.8-15.3
	c2.7-2.7,6.1-4.2,10.3-4.2c7.2,0,12.7,4.1,14.1,12.1h-7.6c-0.8-3.1-2.7-5.4-6.5-5.4c-2,0-3.7,0.8-4.8,2c-1.5,1.6-1.9,3.4-1.9,10.8
	c0,7.4,0.4,9.2,1.9,10.8c1.1,1.2,2.7,2,4.8,2c3.8,0,5.7-2.4,6.5-5.4h7.6C430.9,219.6,425.3,223.6,418.2,223.6z"/>
<path id="XMLID_36_" class="st0" d="M464.5,223.3v-16h-13v16h-7.5V185h7.5v15.7h13V185h7.5v38.3H464.5z"/>
<path id="XMLID_33_" class="st0" d="M509.5,219.5c-2.7,2.7-6,4.2-10.3,4.2c-4.4,0-7.7-1.5-10.4-4.2c-3.9-3.9-3.8-8.7-3.8-15.3
	c0-6.6-0.1-11.4,3.8-15.3c2.7-2.7,6-4.2,10.4-4.2c4.4,0,7.6,1.5,10.3,4.2c3.9,3.9,3.8,8.7,3.8,15.3
	C513.3,210.8,513.4,215.6,509.5,219.5z M504,193.4c-1.1-1.2-2.7-2-4.8-2s-3.8,0.8-4.8,2c-1.5,1.6-1.8,3.4-1.8,10.8
	c0,7.4,0.4,9.1,1.8,10.8c1.1,1.2,2.8,2,4.8,2s3.7-0.8,4.8-2c1.5-1.6,1.9-3.4,1.9-10.8C505.8,196.8,505.4,195,504,193.4z"/>
<path id="XMLID_30_" class="st0" d="M549.5,219.5c-2.7,2.7-6,4.2-10.3,4.2c-4.4,0-7.7-1.5-10.4-4.2c-3.9-3.9-3.8-8.7-3.8-15.3
	c0-6.6-0.1-11.4,3.8-15.3c2.7-2.7,6-4.2,10.4-4.2c4.4,0,7.6,1.5,10.3,4.2c3.9,3.9,3.8,8.7,3.8,15.3
	C553.3,210.8,553.4,215.6,549.5,219.5z M544,193.4c-1.1-1.2-2.7-2-4.8-2c-2,0-3.8,0.8-4.8,2c-1.5,1.6-1.8,3.4-1.8,10.8
	c0,7.4,0.4,9.1,1.8,10.8c1.1,1.2,2.8,2,4.8,2c2,0,3.7-0.8,4.8-2c1.5-1.6,1.9-3.4,1.9-10.8C545.9,196.8,545.4,195,544,193.4z"/>
<path id="XMLID_28_" class="st0" d="M566.3,223.3V185h7.5v31.6h17.4v6.7H566.3z"/>
<g id="XMLID_24_">
	<path id="XMLID_3_" class="st2" d="M87.1,73.8c-0.4,0.3-0.7,0.6-1,0.8c-2.8,2.3-7,4.5-10.7,6.4c-8.1,4.1-15.1,6.9-24.5,9.5
		c-4.3,1.2-10.4,1.7-14.2,1.4c-14.7-1.5-26-10.5-32.2-20.2c-0.6,3.6-0.9,7.3-0.9,11c0,16,5.4,30.7,14.5,42.4
		c1.1-1.4,2.2-2.7,3.3-3.9c15.1-15.3,37.8-15,54.4-27.9c6.1-4.7,11.8-11.5,17.3-17.6c-4.5,5.1-7.4,6.3-11.8,6.6
		c1.4-3.7,3.1-6,4.7-7.6C86.5,74.5,86.8,74.1,87.1,73.8z"/>
	<path id="XMLID_2_" class="st2" d="M101.4,68.1c0.3-0.2,0.6-0.5,0.8-0.8c0.8-1.1,1.6-2.9-1.4-1.2c-0.4,0.2-0.8,0.5-1,0.9
		C98.4,69,99.8,69.3,101.4,68.1z"/>
	<path id="XMLID_1_" class="st2" d="M73.1,13.3c-34.3,0-62.7,24.8-68.3,57.5c3.9,3.5,7.6,8,13.5,9.9c6.8,2.3,14.3,1.1,19.4-1.4
		c-1.1-6-6.4-10.4-12.3-14.6c10.7,2.4,16.4,9.8,22.8,15.4c6.2,0.6,11.5-0.6,17-2.3c8.4-2.5,17.6-6.6,23.8-12.5
		c2-1.9,4.6-4.7,5.9-6.8c3.6-5.9,4.2-12.2,5.2-17.4c0.6,7.2-0.2,16.1-5.6,24.7c1.6-1.1,3.4-2.1,4.9-3.2c5.5-3.9,9.9-7.1,15.4-11.2
		c2-1.5,5.9-5.5,8.1-4.6c2,0.8,1.8,5,1.4,7c-0.8,5-2.3,9.4-3.6,13.1c-4,11.1-9.5,21.3-14.7,31.5c-10.7,20.8-23.2,33.1-37.7,43.1
		c-4.1,2.8-8.3,5.4-12.4,8.3c5.2,1.3,10.7,2.1,16.4,2.2c0.6-5.1,1.2-12.4,1.2-12.4l11.4-9.9c-1.9,7.6-2.9,15.3-5.6,22.1
		c35.5-3.1,63.3-32.8,63.3-69.1C142.4,44.4,111.4,13.3,73.1,13.3z"/>
</g>
</svg>
