<?xml version="1.0" encoding="utf-8"?>
<!-- Generator: Adobe Illustrator 19.0.0, SVG Export Plug-In . SVG Version: 6.00 Build 0)  -->
<svg version="1.1" id="Calque_1" xmlns="http://www.w3.org/2000/svg" xmlns:xlink="http://www.w3.org/1999/xlink" x="0px" y="0px"
	 viewBox="-81 8.9 433 578.4" style="enable-background:new -81 8.9 433 578.4;" xml:space="preserve">
<style type="text/css">
	.st0{fill:#3D3D3D;}
	.st1{fill:#35383A;}
	.st2{fill:#7B7C7C;}
</style>
<path class="st0" d="M5.6,463.2v-64.7h17.9v64.7c0,2.5,0.9,4.6,2.6,6.3c1.7,1.7,3.8,2.6,6.3,2.6c2.4,0,4.5-0.9,6.2-2.6
	c1.7-1.7,2.6-3.8,2.6-6.3v-64.7H59v64.7c0,2.5,0.9,4.6,2.6,6.3c1.7,1.7,3.8,2.6,6.3,2.6c2.5,0,4.6-0.9,6.3-2.6
	c1.7-1.7,2.6-3.8,2.6-6.3v-64.7h17.9v64.7c0,7.4-2.6,13.8-7.9,19c-5.2,5.2-11.6,7.9-19,7.9c-6.8,0-12.7-2.3-17.8-6.9
	c-5,4.6-10.9,6.9-17.7,6.9c-7.4,0-13.7-2.6-18.9-7.9C8.2,477,5.6,470.7,5.6,463.2z"/>
<path class="st0" d="M112,487.8v-89.3h17.9v89.3H112z"/>
<path class="st0" d="M147,487.8v-89.3h17.9V470h35.5v17.9L147,487.8L147,487.8z"/>
<path class="st0" d="M213.1,487.8v-89.3h22.3c5.6,0,10.9,1.4,15.6,4.2c4.8,2.8,8.5,6.6,11.3,11.4c2.8,4.8,4.2,10,4.2,15.7v26.8
	c0,5.6-1.4,10.8-4.2,15.6s-6.6,8.6-11.3,11.4c-4.8,2.8-10,4.2-15.6,4.2L213.1,487.8L213.1,487.8z M230.9,470h4.4
	c3.7,0,6.8-1.3,9.4-4s3.9-5.8,3.9-9.4v-26.8c0-3.7-1.3-6.8-3.9-9.5c-2.6-2.6-5.7-3.9-9.4-3.9h-4.4V470z"/>
<path class="st1" d="M14.8,536.5c-2.7,0-5-1-6.7-2.7c-2.5-2.5-2.5-5.6-2.5-10c0-4.3-0.1-7.4,2.5-10c1.8-1.8,4-2.7,6.7-2.7
	c4.7,0,8.3,2.7,9.2,7.9h-4.9c-0.5-2-1.8-3.5-4.2-3.5c-1.3,0-2.4,0.5-3.1,1.3c-0.9,1.1-1.2,2.2-1.2,7c0,4.8,0.3,6,1.2,7
	c0.7,0.8,1.8,1.3,3.1,1.3c2.5,0,3.7-1.5,4.2-3.5H24C23.2,533.8,19.5,536.5,14.8,536.5z"/>
<path class="st1" d="M46.9,533.7c-1.8,1.8-3.9,2.7-6.7,2.7c-2.8,0-5-1-6.8-2.7c-2.5-2.5-2.5-5.6-2.5-10c0-4.3-0.1-7.4,2.5-10
	c1.8-1.8,3.9-2.7,6.8-2.7c2.8,0,5,1,6.7,2.7c2.5,2.5,2.5,5.6,2.5,10C49.4,528.1,49.4,531.2,46.9,533.7z M43.2,516.8
	c-0.7-0.8-1.8-1.3-3.1-1.3s-2.5,0.5-3.2,1.3c-0.9,1.1-1.2,2.2-1.2,7s0.2,6,1.2,7c0.7,0.8,1.8,1.3,3.2,1.3c1.3,0,2.4-0.5,3.1-1.3
	c0.9-1.1,1.2-2.2,1.2-7S44.2,517.8,43.2,516.8z"/>
<path class="st1" d="M73.4,533.9c-1.6,1.6-4,2.4-6.6,2.4h-9v-25h9c2.6,0,4.9,0.7,6.6,2.4c2.8,2.8,2.5,6.2,2.5,10
	C76,527.4,76.2,531.1,73.4,533.9z M70,517.2c-0.8-1-2-1.5-3.6-1.5h-3.7v16.3h3.7c1.7,0,2.8-0.5,3.6-1.5c0.9-1.1,1.1-2.9,1.1-6.7
	C71.1,519.9,71,518.3,70,517.2z"/>
<path class="st1" d="M84.5,536.3v-25h16.4v4.4H89.3v5.9h9.9v4.3h-9.9v6.1h11.6v4.3L84.5,536.3L84.5,536.3z"/>
<path class="st0" d="M127.7,536.5c-3.8,0-6.7-0.8-9.1-3.3l3.2-3.2c1.6,1.6,3.7,2.1,6,2.1c2.9,0,4.4-1.1,4.4-3.1
	c0-0.9-0.2-1.6-0.8-2.1c-0.5-0.5-1.1-0.7-2.2-0.9l-3-0.4c-2.1-0.3-3.7-1-4.8-2.1c-1.2-1.2-1.8-2.8-1.8-4.9c0-4.5,3.3-7.6,8.7-7.6
	c3.4,0,5.9,0.8,8.1,2.9l-3.1,3.1c-1.6-1.5-3.5-1.7-5.1-1.7c-2.6,0-3.9,1.4-3.9,3.2c0,0.6,0.2,1.3,0.7,1.8c0.5,0.5,1.3,0.8,2.3,1
	l2.9,0.4c2.3,0.3,3.7,0.9,4.8,1.9c1.3,1.3,1.9,3.1,1.9,5.3C137,533.7,132.9,536.5,127.7,536.5z"/>
<path class="st0" d="M153.4,536.5c-2.7,0-5-1-6.7-2.7c-2.5-2.5-2.5-5.6-2.5-10c0-4.3-0.1-7.4,2.5-10c1.8-1.8,4-2.7,6.7-2.7
	c4.7,0,8.3,2.7,9.2,7.9h-4.9c-0.5-2-1.8-3.5-4.2-3.5c-1.3,0-2.4,0.5-3.1,1.3c-0.9,1.1-1.2,2.2-1.2,7c0,4.8,0.3,6,1.2,7
	c0.7,0.8,1.8,1.3,3.1,1.3c2.5,0,3.7-1.5,4.2-3.5h4.9C161.7,533.8,158,536.5,153.4,536.5z"/>
<path class="st0" d="M183.6,536.3v-10.5h-8.5v10.5h-4.9v-25h4.9v10.2h8.5v-10.2h4.9v25H183.6z"/>
<path class="st0" d="M212.9,533.7c-1.8,1.8-3.9,2.7-6.7,2.7c-2.8,0-5-1-6.8-2.7c-2.5-2.5-2.5-5.6-2.5-10c0-4.3-0.1-7.4,2.5-10
	c1.8-1.8,3.9-2.7,6.8-2.7c2.8,0,5,1,6.7,2.7c2.5,2.5,2.5,5.6,2.5,10C215.4,528.1,215.5,531.2,212.9,533.7z M209.3,516.8
	c-0.7-0.8-1.8-1.3-3.1-1.3s-2.5,0.5-3.2,1.3c-0.9,1.1-1.2,2.2-1.2,7s0.2,6,1.2,7c0.7,0.8,1.8,1.3,3.2,1.3s2.4-0.5,3.1-1.3
	c0.9-1.1,1.2-2.2,1.2-7S210.3,517.8,209.3,516.8z"/>
<path class="st0" d="M239,533.7c-1.8,1.8-3.9,2.7-6.7,2.7c-2.8,0-5-1-6.8-2.7c-2.5-2.5-2.5-5.6-2.5-10c0-4.3-0.1-7.4,2.5-10
	c1.8-1.8,3.9-2.7,6.8-2.7c2.8,0,5,1,6.7,2.7c2.5,2.5,2.5,5.6,2.5,10C241.5,528.1,241.6,531.2,239,533.7z M235.4,516.8
	c-0.7-0.8-1.8-1.3-3.1-1.3s-2.5,0.5-3.2,1.3c-0.9,1.1-1.2,2.2-1.2,7s0.2,6,1.2,7c0.7,0.8,1.8,1.3,3.2,1.3c1.3,0,2.4-0.5,3.1-1.3
	c0.9-1.1,1.2-2.2,1.2-7C236.7,519,236.4,517.8,235.4,516.8z"/>
<path class="st0" d="M250,536.3v-25h4.9v20.6h11.3v4.3H250z"/>
<g>
	<path class="st2" d="M170.1,187.5c-0.8,0.7-1.6,1.4-2.4,2c-6.6,5.4-16.6,10.7-25.2,15.1c-19.1,9.6-35.8,16.3-58,22.4
		c-10.2,2.8-24.6,4.1-33.5,3.2c-34.7-3.5-61.5-24.8-76.2-47.7c-1.4,8.5-2.1,17.2-2.1,26c0,37.8,12.8,72.6,34.3,100.4
		c2.5-3.2,5.1-6.3,7.9-9.2c35.8-36.2,89.4-35.5,128.8-65.9c14.3-11.1,27.8-27.2,40.9-41.7c-10.6,12-17.4,14.8-27.8,15.6
		c3.3-8.7,7.3-14.2,11.1-17.9C168.7,189.1,169.4,188.3,170.1,187.5z"/>
	<path class="st2" d="M204,174.1c0.7-0.5,1.4-1.2,1.9-1.9c1.9-2.7,3.9-6.8-3.2-2.8c-1,0.5-1.8,1.2-2.4,2
		C196.8,176.2,200.1,176.8,204,174.1z"/>
	<path class="st2" d="M136.8,44.3c-81.1,0-148.4,58.8-161.7,136c9.2,8.3,18,18.8,32,23.5c16.1,5.4,33.9,2.6,45.8-3.3
		c-2.5-14.2-15.1-24.6-29.1-34.5c25.3,5.7,38.9,23.3,54,36.5c14.6,1.4,27.1-1.4,40.3-5.4c19.8-5.9,41.6-15.7,56.3-29.7
		c4.8-4.5,11-11,14.1-16.1c8.5-14,9.8-29,12.2-41.1c1.5,17.1-0.4,38-13.3,58.5c3.8-2.5,8-5,11.7-7.6c13-9.2,23.4-16.7,36.3-26.5
		c4.6-3.5,14-13,19.1-10.9c4.7,2,4.2,11.9,3.4,16.6c-1.9,11.8-5.5,22.4-8.6,31.1c-9.5,26.3-22.5,50.5-34.9,74.5
		c-25.3,49.2-54.9,78.4-89.3,102c-9.6,6.6-19.6,12.9-29.4,19.6c12.4,3.2,25.4,4.9,38.7,5.1c1.4-12.1,2.9-29.4,2.9-29.4l27-23.4
		c-4.4,18-6.8,36.3-13.2,52.2c83.9-7.3,149.7-77.7,149.7-163.5C301,117.9,227.5,44.3,136.8,44.3z"/>
</g>
</svg>
